<?xml version="1.0" encoding="utf-8"?>
<!-- Generator: Adobe Illustrator 16.0.2, SVG Export Plug-In . SVG Version: 6.00 Build 0)  -->
<!DOCTYPE svg PUBLIC "-//W3C//DTD SVG 1.1//EN" "http://www.w3.org/Graphics/SVG/1.1/DTD/svg11.dtd">
<svg version="1.1" id="Layer_1" xmlns="http://www.w3.org/2000/svg" xmlns:xlink="http://www.w3.org/1999/xlink" x="0px" y="0px"
	 width="612px" height="792px" viewBox="0 0 612 792" enable-background="new 0 0 612 792" xml:space="preserve">
<g>
	<g>
		
			<linearGradient id="SVGID_1_" gradientUnits="userSpaceOnUse" x1="-134.2583" y1="249.8472" x2="-134.2583" y2="350.1391" gradientTransform="matrix(4.6667 0 0 4.6667 915.5417 -1022.6841)">
			<stop  offset="0" style="stop-color:#85C0C1"/>
			<stop  offset="0.9485" style="stop-color:#007481"/>
		</linearGradient>
		<circle fill="url(#SVGID_1_)" cx="289" cy="432.207" r="225.399"/>
		<path fill="#FFFFFF" d="M289,665.602c-128.786,0-233.301-104.515-233.301-233.301S160.214,199,289,199
			c128.786,0,233.301,104.515,233.301,233.301S417.88,665.602,289,665.602z M289,215.274c-119.849,0-216.932,97.46-216.932,216.933
			c0,119.942,97.554,217.025,217.026,217.025c119.472,0,217.026-97.553,217.026-217.025
			C506.026,312.264,408.943,215.274,289,215.274z"/>
	</g>
	<g>
		<rect x="176.771" y="424.116" fill="#FFFFFF" width="51.646" height="16.651"/>
		<polygon fill="#FFFFFF" points="400.664,424.116 383.167,424.116 383.167,406.619 366.516,406.619 366.516,424.116 
			349.019,424.116 349.019,440.768 366.516,440.768 366.516,458.265 383.167,458.265 383.167,440.768 400.664,440.768 		"/>
		<path fill="#FFFFFF" d="M377.523,515.085c-4.422,0-8.844-0.282-13.266-0.94c-36.781-5.269-61.43-31.703-75.258-52.022
			c-13.829,20.319-38.476,46.848-75.258,52.116c-4.421,0.658-8.843,0.94-13.264,0.94c-22.954,0-44.402-8.561-60.583-23.988
			c-16.369-15.616-25.306-36.595-25.306-58.89c0-22.39,9.031-43.273,25.4-58.89c16.18-15.428,37.723-23.988,60.583-23.988
			c4.327,0,8.843,0.282,13.17,0.94c36.876,5.268,61.43,31.797,75.258,52.116c13.828-20.319,38.477-46.849,75.258-52.116
			c4.422-0.658,8.844-0.94,13.171-0.94c22.954,0,44.402,8.561,60.583,23.988c16.369,15.616,25.399,36.595,25.399,58.89
			c0,22.39-9.03,43.273-25.306,58.89C421.926,506.618,400.383,515.085,377.523,515.085 M305.275,432.207
			c7.148,13.734,28.409,47.883,63.122,52.868c3.011,0.471,6.114,0.659,9.126,0.659c31.138,0,56.537-23.989,56.537-53.527
			c0-29.539-25.399-53.528-56.537-53.528c-3.012,0-6.021,0.188-9.031,0.659C333.685,384.323,312.519,418.472,305.275,432.207z
			 M200.478,378.679c-31.232,0-56.632,23.989-56.632,53.528c0,29.538,25.399,53.527,56.538,53.527c3.01,0,6.021-0.188,9.125-0.659
			c34.713-4.985,55.974-39.134,63.123-52.868c-7.149-13.735-28.41-47.884-63.123-52.869
			C206.498,378.867,203.488,378.679,200.478,378.679z"/>
		<path fill="#FFFFFF" d="M446.102,362.404h2.822c1.317,0,2.258-0.188,2.822-0.658c0.471-0.377,0.753-0.941,0.753-1.6
			c0-0.471-0.095-0.847-0.376-1.129c-0.283-0.376-0.564-0.564-1.035-0.752c-0.471-0.188-1.223-0.282-2.352-0.282h-2.635V362.404z
			 M443.75,370.589v-14.581h4.986c1.693,0,2.916,0.094,3.668,0.376c0.753,0.282,1.412,0.753,1.788,1.411
			c0.47,0.658,0.658,1.411,0.658,2.164c0,1.034-0.376,1.975-1.129,2.822c-0.753,0.752-1.787,1.223-3.011,1.316
			c0.471,0.188,0.941,0.471,1.224,0.753c0.564,0.564,1.317,1.505,2.163,2.916l1.788,2.822h-2.917l-1.316-2.258
			c-1.035-1.787-1.787-2.916-2.445-3.387c-0.471-0.376-1.035-0.471-1.883-0.471h-1.41v6.209h-2.164V370.589z M449.677,351.774
			c-1.882,0-3.763,0.47-5.55,1.505c-1.788,0.94-3.199,2.352-4.234,4.14c-1.034,1.787-1.505,3.669-1.505,5.644
			c0,1.976,0.471,3.857,1.505,5.645c1.035,1.788,2.353,3.199,4.14,4.14c1.788,1.034,3.669,1.505,5.645,1.505
			s3.856-0.471,5.645-1.505c1.787-1.035,3.198-2.352,4.14-4.14c1.034-1.787,1.504-3.669,1.504-5.645c0-1.975-0.47-3.856-1.504-5.644
			c-1.035-1.788-2.447-3.199-4.234-4.14C453.439,352.244,451.559,351.774,449.677,351.774z M449.677,349.517
			c2.258,0,4.516,0.564,6.679,1.787c2.164,1.129,3.857,2.822,5.08,4.986c1.223,2.163,1.787,4.421,1.787,6.772
			c0,2.353-0.564,4.61-1.787,6.68c-1.223,2.164-2.822,3.856-4.985,4.985c-2.164,1.224-4.422,1.788-6.773,1.788
			c-2.353,0-4.61-0.564-6.773-1.788c-2.163-1.223-3.856-2.821-4.985-4.985c-1.223-2.164-1.787-4.422-1.787-6.68
			c0-2.352,0.564-4.609,1.787-6.772c1.223-2.164,2.916-3.857,5.08-4.986C445.161,350.081,447.419,349.517,449.677,349.517z"/>
		<path fill="#EEB111" d="M374.042,349.422c-3.387,0.095-6.491,0.377-9.878,0.848c-36.782,5.268-61.43,31.796-75.258,52.116
			c-0.282-0.377-16.651,29.257-16.275,29.915c-7.244,13.734-28.41,47.883-63.123,52.869c-0.282,0-6.491,0.47-6.491,0.564
			c0.094,10.159,0,24.271,0,29.351c0,0,0,0,0,0.094c2.446,0,4.892-0.188,7.337-0.47c0.094-0.095,2.917-0.564,3.199-0.471
			c0.094,0,0.094,0,0.188,0c36.876-5.269,61.43-31.797,75.258-52.116c0.188,0.188,16.463-29.634,16.275-29.915
			c7.243-13.735,28.409-47.884,63.122-52.869c1.976-0.282,3.763-0.471,5.739-0.564C374.042,378.679,374.324,352.244,374.042,349.422
			z"/>
	</g>
</g>
</svg>
