<?xml version="1.0" encoding="utf-8"?>
<!-- Generator: Adobe Illustrator 16.0.0, SVG Export Plug-In . SVG Version: 6.00 Build 0)  -->
<!DOCTYPE svg PUBLIC "-//W3C//DTD SVG 1.1//EN" "http://www.w3.org/Graphics/SVG/1.1/DTD/svg11.dtd">
<svg version="1.1" id="Livello_1" xmlns="http://www.w3.org/2000/svg" xmlns:xlink="http://www.w3.org/1999/xlink" x="0px" y="0px"
	 width="23px" height="20px" viewBox="0 0 23 20" enable-background="new 0 0 23 20" xml:space="preserve">
<path fill="#7F8181" d="M21,2.996h-2V1.997c0-1.429-0.52-1.998-2-1.998h-1c-1.5,0-2,0.539-2,1.998v0.999H9V1.997
	c0-1.459-0.5-1.998-2-1.998H6c-1.48,0-2,0.57-2,1.998v0.999H2c-1.5,0-2,0.62-2,1.998v12.988C0,19.361,0.61,20,2,19.98h19
	c1.391,0.02,2-0.619,2-1.998V4.994C23,3.615,22.5,2.996,21,2.996z M13.273,6.155c0-0.36,0.291-0.653,0.651-0.653
	s0.653,0.292,0.653,0.653v1.053h-1.305V6.155z M11.152,6.155c0-0.36,0.293-0.653,0.652-0.653c0.36,0,0.653,0.292,0.653,0.653v1.053
	h-1.305V6.155z M9.031,6.155c0-0.36,0.291-0.653,0.651-0.653c0.36,0,0.653,0.292,0.653,0.653v1.053H9.031V6.155z M7.107,14.678
	H6.054c-0.36,0-0.652-0.291-0.652-0.652c0-0.359,0.292-0.65,0.652-0.65h1.054V14.678z M7.107,12.557H6.054
	c-0.36,0-0.652-0.292-0.652-0.652c0-0.359,0.292-0.651,0.652-0.651h1.054V12.557z M7.107,10.437H6.054
	c-0.36,0-0.652-0.292-0.652-0.652s0.292-0.652,0.652-0.652h1.054V10.437z M10.336,17.655c0,0.36-0.292,0.653-0.652,0.653
	c-0.36,0-0.653-0.293-0.653-0.653v-1.055h1.305V17.655z M12.457,17.655c0,0.36-0.293,0.653-0.653,0.653
	c-0.359,0-0.652-0.293-0.652-0.653v-1.055h1.305V17.655z M14.578,17.655c0,0.36-0.292,0.653-0.652,0.653
	c-0.359,0-0.652-0.293-0.652-0.653h0.002v-1.055h1.303V17.655z M15.874,15.295c0,0.376-0.304,0.68-0.679,0.68H8.414
	c-0.375,0-0.68-0.304-0.68-0.68v-6.78c0-0.375,0.304-0.68,0.68-0.68h6.781c0.375,0,0.679,0.304,0.679,0.68V15.295z M17.555,14.678
	h-1.054v-1.303h1.054c0.359,0,0.652,0.291,0.652,0.65C18.207,14.387,17.914,14.678,17.555,14.678z M17.555,12.557h-1.054v-1.304
	h1.054c0.359,0,0.652,0.292,0.652,0.651C18.207,12.265,17.914,12.557,17.555,12.557z M17.555,10.436h-1.054V9.132h1.054
	c0.359,0,0.652,0.291,0.652,0.651C18.207,10.143,17.914,10.436,17.555,10.436z"/>
</svg>
