<?xml version="1.0" encoding="utf-8"?>
<!-- Generator: Adobe Illustrator 16.0.0, SVG Export Plug-In . SVG Version: 6.00 Build 0)  -->
<!DOCTYPE svg PUBLIC "-//W3C//DTD SVG 1.1//EN" "http://www.w3.org/Graphics/SVG/1.1/DTD/svg11.dtd">
<svg version="1.1" id="Livello_1" xmlns="http://www.w3.org/2000/svg" xmlns:xlink="http://www.w3.org/1999/xlink" x="0px" y="0px"
	 width="23px" height="20px" viewBox="0 0 23 20" enable-background="new 0 0 23 20" xml:space="preserve">
<g>
	<path fill="#7F8181" d="M16.337,8.028c-0.162,0-0.327,0.01-0.491,0.035c-1.884,0.268-3.036,2.124-3.425,2.868
		c0.389,0.744,1.541,2.6,3.425,2.87c0.164,0.024,0.33,0.035,0.493,0.035c1.691,0,3.067-1.304,3.067-2.905
		C19.406,9.33,18.029,8.028,16.337,8.028z M17.594,11.396h-0.947v0.947h-0.904v-0.947h-0.948v-0.904h0.948V9.545h0.904v0.947h0.947
		V11.396z"/>
	<path fill="#7F8181" d="M7.223,8.063C7.06,8.039,6.894,8.028,6.732,8.028c-1.693,0-3.071,1.301-3.071,2.903
		c0,1.602,1.376,2.905,3.069,2.905c0.162,0,0.328-0.011,0.493-0.035c1.882-0.271,3.035-2.125,3.426-2.87
		C10.259,10.189,9.105,8.332,7.223,8.063z M8.248,11.396h-2.8v-0.904h2.8V11.396z"/>
	<path fill="#7F8181" d="M21,2.996h-2V1.997c0-1.429-0.52-1.998-2-1.998h-1c-1.5,0-2,0.539-2,1.998v0.999H9V1.997
		c0-1.459-0.5-1.998-2-1.998H6c-1.48,0-2,0.57-2,1.998v0.999H2c-1.5,0-2,0.62-2,1.998v12.988C0,19.361,0.61,20,2,19.98h19
		c1.391,0.02,2-0.619,2-1.998V4.994C23,3.615,22.5,2.996,21,2.996z M19.625,14.129c-0.877,0.84-2.045,1.302-3.286,1.302
		c-0.238,0-0.48-0.018-0.72-0.052c-1.997-0.285-3.334-1.722-4.086-2.824c-0.75,1.103-2.086,2.54-4.085,2.824
		c-0.237,0.034-0.48,0.052-0.718,0.052c-1.244,0-2.411-0.462-3.288-1.302c-0.886-0.849-1.375-1.984-1.375-3.197
		c0-1.212,0.489-2.348,1.376-3.196C4.32,6.897,5.488,6.434,6.732,6.434c0.237,0,0.479,0.018,0.716,0.051
		c1.999,0.287,3.335,1.723,4.085,2.826c0.752-1.103,2.089-2.54,4.086-2.826c0.238-0.033,0.48-0.051,0.718-0.051
		c1.242,0,2.411,0.463,3.287,1.302C20.512,8.584,21,9.72,21,10.932C21,12.145,20.512,13.28,19.625,14.129z"/>
</g>
</svg>
